<?xml version="1.0" encoding="UTF-8"?>
<svg version="1.1" xmlns="http://www.w3.org/2000/svg" width="197" height="197">
<path d="M0 0 C65.01 0 130.02 0 197 0 C197 65.01 197 130.02 197 197 C131.99 197 66.98 197 0 197 C0 131.99 0 66.98 0 0 Z " fill="#415D65" transform="translate(0,0)"/>
<path d="M0 0 C1.11246094 -0.01675781 2.22492188 -0.03351563 3.37109375 -0.05078125 C6.93292803 0.35466623 8.74997786 1.11506207 11.5625 3.3125 C12.875 5.5 12.875 5.5 13.5625 7.3125 C12.95921875 7.50585938 12.3559375 7.69921875 11.734375 7.8984375 C10.93515625 8.15882812 10.1359375 8.41921875 9.3125 8.6875 C8.52359375 8.94273438 7.7346875 9.19796875 6.921875 9.4609375 C2.3761375 11.10161759 0.66558159 11.9335991 -1.4375 16.3125 C-2.40328073 17.92196193 -3.38831931 19.51994156 -4.38671875 21.109375 C-4.9799292 22.05594971 -5.57313965 23.00252441 -6.18432617 23.9777832 C-6.82474854 24.99573975 -7.4651709 26.01369629 -8.125 27.0625 C-9.48964882 29.23824018 -10.85423025 31.41402262 -12.21875 33.58984375 C-12.91871094 34.70472168 -13.61867188 35.81959961 -14.33984375 36.96826172 C-16.98157589 41.17990591 -19.61416457 45.39721564 -22.24609375 49.61499023 C-24.71311711 53.56716423 -27.18425477 57.51675466 -29.65625 61.46582031 C-30.8368679 63.35260824 -32.0165666 65.23997168 -33.1953125 67.12792969 C-34.83548105 69.75388447 -36.47968159 72.37726978 -38.125 75 C-38.60606201 75.77190674 -39.08712402 76.54381348 -39.58276367 77.33911133 C-46.83196704 88.86504678 -46.83196704 88.86504678 -51.4375 90.3125 C-56.07577111 90.82786346 -59.01340929 90.4820517 -62.85791016 87.76708984 C-66.15148615 84.73414923 -68.19858192 80.771446 -70.4375 76.9375 C-71.57927399 75.03818696 -72.72255317 73.13977811 -73.8671875 71.2421875 C-74.45338867 70.2634668 -75.03958984 69.28474609 -75.64355469 68.27636719 C-78.54060593 63.49000327 -81.54824892 58.77563977 -84.5625 54.0625 C-85.14370605 53.15346924 -85.72491211 52.24443848 -86.32373047 51.30786133 C-87.47174762 49.51329871 -88.62033655 47.71910174 -89.76953125 45.92529297 C-91.39802006 43.37434344 -93.01291802 40.81524722 -94.625 38.25390625 C-95.60394974 36.71079986 -96.58310462 35.16782359 -97.5625 33.625 C-97.99965332 32.92407227 -98.43680664 32.22314453 -98.88720703 31.50097656 C-101.57655255 27.29037445 -103.81112049 24.11500485 -108.6875 22.625 C-109.265 22.521875 -109.8425 22.41875 -110.4375 22.3125 C-110.1770304 19.10004157 -109.86259628 17.6977435 -107.4375 15.5 C-102.65753201 13.60792934 -98.27307693 13.47912342 -93.32421875 14.93359375 C-83.98821507 19.01243031 -78.77807016 28.50081434 -73.625 36.8125 C-73.02260498 37.76850098 -72.42020996 38.72450195 -71.79956055 39.70947266 C-68.96431709 44.21740058 -66.1664153 48.74569991 -63.4140625 53.3046875 C-62.9600708 54.05041016 -62.5060791 54.79613281 -62.03833008 55.56445312 C-61.19735037 56.95030865 -60.36597335 58.34205018 -59.5456543 59.74023438 C-58.34603945 61.77604937 -58.34603945 61.77604937 -56.4375 64.3125 C-55.4475 64.3125 -54.4575 64.3125 -53.4375 64.3125 C-52.05566053 62.74303818 -52.05566053 62.74303818 -50.86328125 60.59765625 C-50.36844238 59.77821533 -49.87360352 58.95877441 -49.36376953 58.11450195 C-48.83122559 57.21046631 -48.29868164 56.30643066 -47.75 55.375 C-46.58914691 53.45197233 -45.42629648 51.53014933 -44.26171875 49.609375 C-43.33625244 48.07700195 -43.33625244 48.07700195 -42.39208984 46.51367188 C-39.02638064 41.00140868 -35.54604966 35.5632828 -32.0625 30.125 C-31.40934814 29.09963135 -30.75619629 28.0742627 -30.08325195 27.01782227 C-12.81774889 0.04445462 -12.81774889 0.04445462 0 0 Z " fill="#E5DCD1" transform="translate(139.4375,65.6875)"/>
<path d="M0 0 C0 1.32 0 2.64 0 4 C-0.86625 4.185625 -1.7325 4.37125 -2.625 4.5625 C-10.05292468 7.7262457 -13.79818306 15.64793913 -17.6875 22.375 C-22.78134935 31.02269774 -28.10557136 39.47589253 -33.61035156 47.86621094 C-35.0865541 50.13290282 -36.54127578 52.41235691 -37.9921875 54.6953125 C-38.48517334 55.46786377 -38.97815918 56.24041504 -39.48608398 57.03637695 C-40.42684872 58.51169229 -41.3640875 59.98926433 -42.29711914 61.46948242 C-47.9657086 70.32190287 -47.9657086 70.32190287 -53 72 C-58.92572322 72.67083659 -58.92572322 72.67083659 -61.7890625 70.8828125 C-63.25182828 69.65575305 -64.63337025 68.33329732 -66 67 C-65.35100098 63.58969842 -64.03107933 61.16325263 -62.18359375 58.23828125 C-61.59199463 57.29629883 -61.00039551 56.35431641 -60.39086914 55.38378906 C-59.42395142 53.86350098 -59.42395142 53.86350098 -58.4375 52.3125 C-57.77290771 51.25901367 -57.10831543 50.20552734 -56.42358398 49.12011719 C-54.65017063 46.31368173 -52.87158267 43.51071275 -51.08874512 40.71026611 C-50.00909745 39.01429083 -48.93070308 37.31752423 -47.85253906 35.62060547 C-43.25960056 28.39785629 -38.65821173 21.18086218 -34 14 C-33.30084473 12.91485107 -32.60168945 11.82970215 -31.88134766 10.71166992 C-31.18187012 9.64021729 -30.48239258 8.56876465 -29.76171875 7.46484375 C-28.81558716 6.00872681 -28.81558716 6.00872681 -27.8503418 4.52319336 C-20.62260326 -5.33281374 -9.77541821 -6.51694547 0 0 Z " fill="#E5DBD1" transform="translate(171,84)"/>
<path d="M0 0 C2.875 1.875 2.875 1.875 5.125 4.875 C7.89679443 8.52872902 11.1813524 9.07785202 15.4921875 10.15234375 C18.56257018 11.08352538 20.58505896 12.66139032 22.875 14.875 C22.875 17.1875 22.875 17.1875 21.875 19.875 C19.93976686 20.57568786 18.00150216 21.26945142 16.046875 21.9140625 C7.531536 25.68164055 2.51722421 37.54819326 -2.09106445 45.19262695 C-3.06483912 46.77710894 -4.09337391 48.32756087 -5.125 49.875 C-8.93882722 48.60372426 -9.42417258 47.25806251 -11.5234375 43.88671875 C-12.16796875 42.87029297 -12.8125 41.85386719 -13.4765625 40.80664062 C-14.81807067 38.65582491 -16.15922059 36.50478571 -17.5 34.35351562 C-18.14710937 33.33322266 -18.79421875 32.31292969 -19.4609375 31.26171875 C-20.04407715 30.32545654 -20.6272168 29.38919434 -21.22802734 28.42456055 C-24.24958712 24.36353754 -27.6534505 21.7467117 -32.4375 20.125 C-33.654375 19.7125 -34.87125 19.3 -36.125 18.875 C-35.33542494 15.06270828 -34.11182184 13.435133 -31.125 10.875 C-28.43536425 9.11282486 -26.91205048 8.85978932 -23.625 8.625 C-19.89612322 8.2361781 -19.89612322 8.2361781 -18.0625 5 C-17.423125 3.96875 -16.78375 2.9375 -16.125 1.875 C-10.76575086 -1.69783276 -6.05655999 -2.1803616 0 0 Z " fill="#E5DCD1" transform="translate(106.125,42.125)"/>
<path d="M0 0 C7.5543222 4.44371894 11.91217 9.91180184 16.375 17.375 C17.38878523 19.03157917 18.40309651 20.68783654 19.41796875 22.34375 C19.88638184 23.12621094 20.35479492 23.90867187 20.83740234 24.71484375 C22.02965221 26.62244354 23.31302219 28.3704476 24.67578125 30.15625 C26.1875 32.875 26.1875 32.875 25.6953125 35.35546875 C23.89605359 38.36200242 22.03573365 41.29130222 20.0625 44.1875 C19.33804688 45.25613281 18.61359375 46.32476562 17.8671875 47.42578125 C17.31289062 48.23402344 16.75859375 49.04226562 16.1875 49.875 C13.13615987 47.02263311 10.93751556 44.14531313 8.76171875 40.5859375 C7.81329102 39.04873047 7.81329102 39.04873047 6.84570312 37.48046875 C6.19537109 36.41441406 5.54503906 35.34835938 4.875 34.25 C-3.11472498 18.71106874 -3.11472498 18.71106874 -15.953125 8.14453125 C-16.64921875 7.99371094 -17.3453125 7.84289062 -18.0625 7.6875 C-19.3 7.419375 -20.5375 7.15125 -21.8125 6.875 C-21.625 4.5625 -21.625 4.5625 -20.8125 1.875 C-14.62663029 -2.7837677 -7.14386711 -2.10802636 0 0 Z " fill="#E5DBD1" transform="translate(68.8125,67.125)"/>
</svg>
